<?xml version="1.0"?>
<svg xmlns="http://www.w3.org/2000/svg" version="1.1" width="512" height="512"
     x="0" y="0" viewBox="0 0 300 300" style="enable-background:new 0 0 512 512"
     xml:space="preserve" class=""><g><g xmlns="http://www.w3.org/2000/svg"><path d="m275.429 87.364c0-4.596-1.918-8.904-5.145-11.986 1.641-2.312 2.551-5.098 2.551-8.043 0-2.344-.598-4.633-1.723-6.676 1.125-2.043 1.723-4.332 1.723-6.676 0-5.094-2.836-9.74-7.176-12.182-.176-2.941-1.387-5.77-3.426-7.924-2.363-2.494-5.688-3.924-9.125-3.924-6.215 0-11.551 4.582-12.41 10.66-3.766 26.721-15.941 47.24-36.184 60.99-.178.121-.281.299-.433.441h-5.817c-8.679-2.137-17.562-3.382-26.488-3.804v-20.194c0-11.027-8.973-20-20-20s-20 8.973-20 20v20.075c-10.269.186-20.511 1.469-30.488 3.925h-5.368c-.15-.14-.251-.316-.427-.436-20.248-13.75-32.424-34.271-36.193-60.996-.857-6.078-6.193-10.66-12.408-10.66-3.438 0-6.766 1.432-9.129 3.928-2.039 2.152-3.248 4.98-3.42 7.92-4.342 2.441-7.178 7.088-7.178 12.182 0 2.342.6 4.633 1.723 6.676-1.123 2.043-1.723 4.334-1.723 6.676 0 2.945.908 5.73 2.549 8.043-3.225 3.082-5.143 7.393-5.143 11.986 0 3.68 1.205 7.164 3.395 10.014-2.191 2.852-3.395 6.336-3.395 10.016 0 5.828 3.049 11.082 7.812 14.049-.75 1.895-1.137 3.91-1.137 5.98 0 8.189 5.959 15.014 13.77 16.365-.275 1.191-.416 2.418-.416 3.662 0 9.158 7.449 16.607 16.607 16.607 2.07 0 4.084-.387 5.979-1.137 2.967 4.766 8.221 7.814 14.051 7.814 3.863 0 7.521-1.314 10.477-3.736 5.735.181 11.105-.566 16.062-2.219v11.266c0 1.338.668 2.586 1.781 3.328l10.004 6.67-7.766 79.613c-.109 1.123.26 2.24 1.018 3.076s1.834 1.312 2.963 1.312h68c1.129 0 2.203-.477 2.961-1.312.762-.836 1.129-1.953 1.02-3.076l-7.766-79.613 10.004-6.67c1.113-.742 1.781-1.99 1.781-3.328v-11.444c5.084 1.76 10.596 2.578 16.508 2.397 2.957 2.422 6.613 3.736 10.477 3.736 5.832 0 11.086-3.049 14.051-7.814 1.895.75 3.91 1.137 5.98 1.137 9.156 0 16.605-7.449 16.605-16.607 0-1.244-.141-2.471-.414-3.662 7.809-1.352 13.77-8.176 13.77-16.365 0-2.07-.387-4.086-1.137-5.98 4.762-2.969 7.812-8.221 7.812-14.049 0-3.68-1.203-7.164-3.395-10.016 2.193-2.851 3.396-6.335 3.396-10.015zm-123.653-21.318c6.617 0 12 5.383 12 12v20h-24v-20c0-6.617 5.383-12 12-12zm-61.273 92.887c-1.135-.076-2.301.365-3.115 1.197-1.641 1.68-3.826 2.605-6.15 2.605-3.912 0-7.324-2.666-8.299-6.484-.336-1.316-1.318-2.373-2.609-2.805-1.289-.424-2.711-.176-3.77.676-1.1.883-2.922 1.936-5.352 1.936-4.746 0-8.607-3.861-8.607-8.607 0-1.85.619-3.641 1.791-5.178.986-1.293 1.006-3.191.18-4.594-.041-.068-.17-.273-.215-.342-.947-1.404-2.684-2.061-4.328-1.633-.854.223-1.543.326-2.172.326-4.748 0-8.609-3.861-8.609-8.607 0-2.43 1.053-4.25 1.936-5.35.854-1.061 1.107-2.48.678-3.771-.43-1.289-1.486-2.273-2.805-2.609-3.818-.977-6.484-4.389-6.484-8.299 0-2.68 1.256-5.168 3.443-6.828.996-.758 1.582-1.938 1.582-3.188 0-1.252-.586-2.432-1.584-3.188-2.188-1.658-3.441-4.146-3.441-6.826 0-3.367 2-6.443 5.094-7.834 1.355-.609 2.262-1.922 2.352-3.406s-.65-2.896-1.922-3.664c-1.834-1.109-2.93-3.025-2.93-5.125 0-1.863.854-3.203 1.572-3.998 1.369-1.521 1.369-3.834 0-5.355-.719-.795-1.572-2.135-1.572-3.998 0-2.676 1.75-4.98 4.357-5.736 1.787-.518 2.98-2.199 2.881-4.057l-.076-1.416c-.068-1.268.373-2.473 1.244-3.393.873-.92 2.051-1.428 3.32-1.428 2.254 0 4.182 1.625 4.486 3.777 3.571 25.318 14.165 45.554 31.513 60.314h-14.584-2.531-18c-2.209 0-4 1.791-4 4 0 11.027 8.973 20 20 20h2.269c2.653 6.083 6.941 12.078 13.942 15.578.555.277 1.168.422 1.789.422h26v14.119c-5.133 2.204-10.922 3.18-17.274 2.769zm-28.485-48.887c.208 2.115.592 4.872 1.34 7.967-5.031-.176-9.291-3.437-10.896-7.967zm121.758 28v35.859l-10.219 6.812c-1.227.818-1.906 2.248-1.762 3.717l7.57 77.611h-59.18l7.57-77.611c.145-1.469-.533-2.898-1.762-3.717l-10.219-6.812v-35.859c0-2.209-1.791-4-4-4h-29.003c-9.307-5.248-11.949-17.596-12.699-24h31.432c4.794 5.314 17.181 16.688 38.273 21.619v86.381c0 2.209 1.789 4 4 4s4-1.791 4-4v-84.874c2.551.348 5.234.57 8 .708v40.166c0 2.209 1.789 4 4 4s4-1.791 4-4v-40.076c2.071-.062 4.175-.163 6.355-.356 2.199-.195 3.824-2.139 3.629-4.338-.191-2.199-2.098-3.789-4.34-3.631-31.178 2.754-49.958-9.658-58.5-17.473 7.699-1.406 15.52-2.127 23.347-2.127h31.016c10.617 0 21.223 1.305 31.523 3.881.316.078.641.119.969.119h31.715c-.734 6.395-3.355 18.73-12.707 24h-29.008c-2.211.001-4 1.792-4 4.001zm63.317-28c-1.607 4.529-5.868 7.79-10.898 7.967.749-3.094 1.133-5.851 1.34-7.967zm16.89-9.481c2.191 1.66 3.445 4.148 3.445 6.828 0 3.91-2.668 7.322-6.488 8.299-1.316.336-2.371 1.32-2.805 2.611-.43 1.291-.172 2.711.68 3.771.883 1.098 1.938 2.916 1.938 5.348 0 4.746-3.863 8.607-8.609 8.607-.629 0-1.32-.104-2.172-.326-1.629-.428-3.512.486-4.469 1.859-.992 1.428-.949 3.33.105 4.711 1.172 1.535 1.789 3.324 1.789 5.176 0 4.746-3.859 8.607-8.605 8.607-2.43 0-4.25-1.053-5.352-1.936-1.062-.852-2.48-1.1-3.77-.676-1.289.432-2.273 1.488-2.609 2.805-.977 3.818-4.387 6.484-8.301 6.484-2.324 0-4.508-.926-6.148-2.605-.816-.834-1.953-1.271-3.117-1.197-6.551.424-12.484-.601-17.719-2.944v-13.943h26c.621 0 1.234-.145 1.789-.422 7.001-3.5 11.289-9.495 13.942-15.578h2.269c11.027 0 20-8.973 20-20 0-2.209-1.789-4-4-4h-18-16.67c17.352-14.76 27.946-34.996 31.513-60.312.305-2.154 2.234-3.779 4.488-3.779 1.27 0 2.445.506 3.316 1.426.875.922 1.316 2.127 1.25 3.391l-.078 1.414c-.105 1.859 1.09 3.545 2.879 4.062 2.609.756 4.359 3.061 4.359 5.736 0 1.863-.855 3.201-1.57 3.996-1.375 1.523-1.375 3.836 0 5.359.715.795 1.57 2.133 1.57 3.996 0 2.098-1.094 4.014-2.93 5.125-1.273.77-2.012 2.182-1.922 3.664.09 1.484.996 2.797 2.352 3.406 3.094 1.391 5.094 4.467 5.094 7.834 0 2.68-1.254 5.168-3.445 6.826-.996.756-1.582 1.936-1.582 3.188.001 1.252.587 2.432 1.583 3.189z" fill="#1565C0" data-original="#000000" style="" class=""/><path
        d="m151.776 54.046c9.957 0 20-3.092 20-10s-10.043-10-20-10-20 3.092-20 10 10.043 10 20 10zm0-12c5.375 0 9.246 1.076 11.094 2-1.848.924-5.719 2-11.094 2s-9.246-1.076-11.094-2c1.848-.924 5.719-2 11.094-2z"
        fill="#1565C0" data-original="#000000" style="" class=""/><path
        d="m93.776 202.046c-7.719 0-14 6.281-14 14s6.281 14 14 14 14-6.281 14-14-6.281-14-14-14zm0 20c-3.309 0-6-2.691-6-6s2.691-6 6-6 6 2.691 6 6-2.691 6-6 6z"
        fill="#1565C0" data-original="#000000" style="" class=""/><circle
        cx="259.776" cy="182.046" r="4" fill="#1565C0" data-original="#000000"
        style="" class=""/><path
        d="m231.776 199.897c-2.211 0-4 1.791-4 4v5.66c0 2.209 1.789 4 4 4s4-1.791 4-4v-5.66c0-2.209-1.789-4-4-4z"
        fill="#1565C0" data-original="#000000" style="" class=""/><path
        d="m231.776 222.534c-2.211 0-4 1.791-4 4v5.66c0 2.209 1.789 4 4 4s4-1.791 4-4v-5.66c0-2.209-1.789-4-4-4z"
        fill="#1565C0" data-original="#000000" style="" class=""/><path
        d="m223.288 214.046h-5.66c-2.211 0-4 1.791-4 4s1.789 4 4 4h5.66c2.211 0 4-1.791 4-4s-1.789-4-4-4z"
        fill="#1565C0" data-original="#000000" style="" class=""/><path
        d="m245.925 214.046h-5.66c-2.211 0-4 1.791-4 4s1.789 4 4 4h5.66c2.211 0 4-1.791 4-4s-1.789-4-4-4z"
        fill="#1565C0" data-original="#000000" style="" class=""/></g></g>
</svg>
