<?xml version="1.0"?>
<svg xmlns="http://www.w3.org/2000/svg" id="Capa_1"
     enable-background="new 0 0 511.981 511.981" height="512px"
     viewBox="0 0 511.981 511.981" width="512px">
    <g>
        <g>
            <path d="m511.652 145.64c0-42.296-18.355-82.444-50.36-110.15-3.132-2.711-7.869-2.371-10.579.761-2.712 3.132-2.37 7.868.761 10.579 26.81 23.209 42.938 56.149 44.958 91.3h-44.448c-3.605-41.617-36.853-74.862-78.471-78.463v-44.443c19.162 1.103 37.94 6.405 54.721 15.517 3.643 1.977 8.194.628 10.17-3.012 1.977-3.64.628-8.193-3.012-10.17-21.158-11.487-45.148-17.559-69.38-17.559-54.823 0-102.66 30.457-127.501 75.336-62.139-1.634-125.052.621-187.082 6.729-23.684 2.328-42.294 21.197-44.252 44.866-9.131 110.463-9.131 222.482 0 332.946 1.959 23.669 20.569 42.538 44.256 44.866 5.496.537 10.443.997 15.125 1.407.223.02.443.029.663.029 3.846 0 7.12-2.942 7.463-6.846.361-4.126-2.69-7.765-6.817-8.126-4.631-.406-9.529-.862-14.971-1.393-16.468-1.619-29.409-14.729-30.77-31.174-9.063-109.643-9.063-220.831 0-330.474 1.36-16.445 14.301-29.555 30.771-31.174 59.17-5.827 119.154-8.12 178.474-6.834-2.651 6.412-4.859 13.051-6.582 19.882-8.565-.157-17.172-.241-25.669-.241-47.813 0-96.353 2.387-144.276 7.096-6.856.677-12.234 6.114-12.787 12.914-1.518 18.318-2.794 36.938-3.794 55.343-.33 6.108 1.892 12.157 6.098 16.597 4.201 4.435 10.113 6.979 16.221 6.979h174.188c4.263 8.832 9.398 17.165 15.282 24.9h-191.51c-12.374 0-22.633 10.074-22.868 22.459-1.252 66.958.896 134.549 6.383 200.886.554 6.819 5.932 12.26 12.792 12.937 47.85 4.702 96.39 7.086 144.272 7.086s96.423-2.384 144.275-7.086c6.857-.677 12.235-6.118 12.788-12.925 4.525-54.677 6.781-110.399 6.724-165.757 1.032.022 2.066.039 3.104.039 5.726 0 11.372-.343 16.927-.989.085 55.854-2.204 112.447-6.822 168.36-1.36 16.445-14.301 29.556-30.77 31.175-82.279 8.092-165.72 9.337-248.003 3.702-4.125-.288-7.712 2.837-7.995 6.97-.283 4.132 2.838 7.711 6.97 7.995 34.074 2.333 68.332 3.499 102.637 3.499 49.371 0 98.825-2.416 147.859-7.238 23.682-2.328 42.292-21.196 44.251-44.867 4.722-57.172 7.023-115.05 6.865-172.139 65.004-14.589 113.721-72.756 113.721-142.095zm-74.322-.004c0 39.323-31.991 71.315-71.314 71.315s-71.316-31.992-71.316-71.315 31.992-71.315 71.315-71.315 71.315 31.992 71.315 71.315zm-376.748 48.094c-2.036 0-3.929-.815-5.331-2.295-1.406-1.484-2.12-3.427-2.009-5.468.979-18.02 2.225-36.249 3.705-54.204 47.229-4.62 95.06-6.962 142.174-6.962 7.526 0 15.14.065 22.732.19-.962 6.748-1.47 13.64-1.47 20.649 0 16.845 2.885 33.028 8.17 48.091h-167.971zm213.888 193.538h-67.85v-62.819h69.209zm16.363-62.819h56.832c-.33 20.954-.995 41.918-1.986 62.819h-56.205zm-240.25 0h56.824l1.36 62.819h-56.201c-.991-20.901-1.653-41.859-1.983-62.819zm71.828 0h69.209v62.819h-67.849zm-.325-15-1.317-60.818h70.851v60.818zm69.534 92.819v59.684c-22.012-.115-44.143-.724-66.272-1.847l-1.252-57.837zm15 0h67.526l-1.251 57.837c-22.13 1.123-44.262 1.732-66.275 1.847zm0-92.819v-60.819h56.529c4.412 4.407 9.11 8.526 14.053 12.341l-1.049 48.477h-69.533zm-155.948-53.076c.081-4.269 3.611-7.742 7.87-7.742h47.224l1.317 60.818h-56.681c-.145-17.713-.061-35.417.27-53.076zm2.661 145.895h55.76l1.234 57.011c-17.842-1.088-35.658-2.499-53.379-4.233-1.443-17.516-2.643-35.122-3.615-52.778zm287.961 52.779c-17.721 1.733-35.537 3.145-53.378 4.233l1.233-57.011h55.766c-.973 17.667-2.179 35.276-3.621 52.778zm6.548-145.598h-56.685l.832-38.444c16.779 9.945 35.71 16.623 55.917 19.14.01 6.431-.012 12.865-.064 19.304zm18.17-33.179c-72.029 0-130.63-58.601-130.63-130.63 0-69.517 54.577-126.519 123.13-130.419v44.447c-44.092 3.817-78.813 40.904-78.813 85.968 0 47.594 38.721 86.315 86.315 86.315 45.067 0 82.155-34.725 85.969-78.821h44.448c-3.894 68.557-60.898 123.14-130.419 123.14z"
                  data-original="#000000" class="active-path"
                  data-old_color="#000000" fill="#1565C0"/>
            <path d="m325.029 186.622c1.465 1.465 3.384 2.197 5.304 2.197 1.919 0 3.839-.732 5.304-2.197l71.365-71.365c2.929-2.929 2.929-7.677 0-10.606s-7.677-2.929-10.607 0l-71.365 71.365c-2.93 2.928-2.93 7.677-.001 10.606z"
                  data-original="#000000" class="active-path"
                  data-old_color="#000000" fill="#1565C0"/>
            <path d="m361.486 116.993c0-13.118-10.672-23.79-23.789-23.79-13.118 0-23.79 10.672-23.79 23.79 0 13.117 10.672 23.789 23.79 23.789 13.117.001 23.789-10.671 23.789-23.789zm-32.579 0c0-4.847 3.943-8.79 8.79-8.79s8.789 3.943 8.789 8.79c0 4.846-3.942 8.789-8.789 8.789s-8.79-3.942-8.79-8.789z"
                  data-original="#000000" class="active-path"
                  data-old_color="#000000" fill="#1565C0"/>
            <path d="m370.544 174.278c0 13.118 10.672 23.79 23.789 23.79 13.118 0 23.79-10.672 23.79-23.79s-10.672-23.79-23.79-23.79c-13.117.001-23.789 10.673-23.789 23.79zm32.579 0c0 4.847-3.943 8.79-8.79 8.79s-8.789-3.943-8.789-8.79 3.942-8.79 8.789-8.79 8.79 3.944 8.79 8.79z"
                  data-original="#000000" class="active-path"
                  data-old_color="#000000" fill="#1565C0"/>
        </g>
    </g>
</svg>
