<?xml version="1.0"?>
<svg xmlns="http://www.w3.org/2000/svg" id="Outline" viewBox="0 0 512 512"
     width="512px" height="512px" class="">
    <g>
        <path d="M146.344,50.343a8,8,0,0,0,0,11.314l22.627,22.627A8,8,0,0,0,180.285,72.97L157.657,50.343A8,8,0,0,0,146.344,50.343Z"
              data-original="#000000" class="active-path"
              data-old_color="#000000" fill="#1565C0"/>
        <path d="M384.971,90.343,362.344,112.97a8,8,0,1,0,11.313,11.314l22.628-22.627a8,8,0,1,0-11.314-11.314Z"
              data-original="#000000" class="active-path"
              data-old_color="#000000" fill="#1565C0"/>
        <path d="M80,240a8,8,0,0,0,0-16H48a8,8,0,0,0,0,16Z"
              data-original="#000000" class="active-path"
              data-old_color="#000000" fill="#1565C0"/>
        <path d="M488,384H349.881l9.726-145.894c.01-.095.018-.192.025-.288l.35-5.29h-.008c.011-.175.026-.35.026-.528v-8a47.771,47.771,0,0,0-24.3-41.754c.2-2.067.3-4.153.3-6.246a63.99,63.99,0,0,0-108.981-45.513A40.014,40.014,0,0,0,160,160a40.439,40.439,0,0,0,.256,4.549A64.093,64.093,0,0,0,120,224v8c0,.178.016.352.027.528h-.009l.49,7.41c.007.108.016.216.028.324l15.482,232.27A8,8,0,0,0,144,480h96v8a8,8,0,0,0,8,8h88a8,8,0,0,0,5.657-2.343L368,467.313l26.344,26.344A8,8,0,0,0,400,496h88a8,8,0,0,0,8-8V392A8,8,0,0,0,488,384Zm-205.059,0,4.8-144h55.708l-9.6,144ZM171.619,177.61a8,8,0,0,0,5.543-10.223A23.661,23.661,0,0,1,176,160a24.006,24.006,0,0,1,44.222-12.941,8,8,0,0,0,13.16.429,48.017,48.017,0,0,1,85.712,37.841,8,8,0,0,0,4.856,8.981A31.871,31.871,0,0,1,344,224H136A48.043,48.043,0,0,1,171.619,177.61ZM136.554,240h55.709l7.466,224H151.484ZM240,392v72H215.738l-7.466-224h63.457l-4.8,144H248A8,8,0,0,0,240,392Zm240,88H403.314l-29.657-29.657a8,8,0,0,0-11.313,0L332.687,480H256V400H480Z"
              data-original="#000000" class="active-path"
              data-old_color="#000000" fill="#1565C0"/>
        <path d="M280,464h40a8,8,0,0,0,5.657-2.343l32-32A8,8,0,0,0,352,416H280a8,8,0,0,0-8,8v32A8,8,0,0,0,280,464Zm8-32h44.687l-16,16H288Z"
              data-original="#000000" class="active-path"
              data-old_color="#000000" fill="#1565C0"/>
        <path d="M410.344,461.657A8,8,0,0,0,416,464h40a8,8,0,0,0,8-8V424a8,8,0,0,0-8-8H384a8,8,0,0,0-5.656,13.657ZM448,432v16H419.314l-16-16Z"
              data-original="#000000" class="active-path"
              data-old_color="#000000" fill="#1565C0"/>
        <path d="M264,68a28.018,28.018,0,0,0,53.4,11.856A23.549,23.549,0,0,0,320,80a24,24,0,0,0,0-48q-.679,0-1.357.039A24,24,0,0,0,273.157,47.33,28.1,28.1,0,0,0,264,68Zm22.891-10.838a8,8,0,0,0,2.845-12.2A7.914,7.914,0,0,1,288,40a8,8,0,0,1,16,0,8.3,8.3,0,0,1-.1,1.141,8,8,0,0,0,12.02,8A7.862,7.862,0,0,1,320,48a8,8,0,0,1,0,16,7.871,7.871,0,0,1-4.035-1.108,8,8,0,0,0-12.024,6.188,11.994,11.994,0,1,1-17.05-11.918Z"
              data-original="#000000" class="active-path"
              data-old_color="#000000" fill="#1565C0"/>
        <path d="M424,224a23.549,23.549,0,0,0,2.6-.144,28,28,0,1,0,44.239-32.526,24,24,0,0,0-45.486-15.291Q424.681,176,424,176a24,24,0,0,0,0,48Zm0-32a7.862,7.862,0,0,1,4.079,1.136,8,8,0,0,0,12.02-8A8.3,8.3,0,0,1,440,184a8,8,0,0,1,16,0,7.914,7.914,0,0,1-1.736,4.958,8,8,0,0,0,2.845,12.2,11.99,11.99,0,1,1-17.05,11.918,8,8,0,0,0-12.024-6.188A7.871,7.871,0,0,1,424,208a8,8,0,0,1,0-16Z"
              data-original="#000000" class="active-path"
              data-old_color="#000000" fill="#1565C0"/>
        <path d="M32,436a28.018,28.018,0,0,0,53.4,11.856A23.549,23.549,0,0,0,88,448a24,24,0,0,0,0-48q-.68,0-1.357.039A24,24,0,0,0,41.157,415.33,28.1,28.1,0,0,0,32,436Zm22.891-10.838a8,8,0,0,0,2.845-12.2A7.914,7.914,0,0,1,56,408a8,8,0,0,1,16,0,8.3,8.3,0,0,1-.1,1.141,8,8,0,0,0,12.02,8A7.862,7.862,0,0,1,88,416a8,8,0,0,1,0,16,7.871,7.871,0,0,1-4.035-1.108,8,8,0,0,0-12.024,6.188,11.994,11.994,0,1,1-17.05-11.918Z"
              data-original="#000000" class="active-path"
              data-old_color="#000000" fill="#1565C0"/>
        <path d="M40,144a23.549,23.549,0,0,0,2.6-.144A28,28,0,1,0,86.843,111.33,24,24,0,0,0,41.357,96.039Q40.68,96,40,96a24,24,0,0,0,0,48Zm0-32a7.862,7.862,0,0,1,4.079,1.136,8,8,0,0,0,12.02-7.995A8.3,8.3,0,0,1,56,104a8,8,0,0,1,16,0,7.914,7.914,0,0,1-1.736,4.958,8,8,0,0,0,2.845,12.2,11.99,11.99,0,1,1-17.05,11.918,8,8,0,0,0-12.024-6.188A7.871,7.871,0,0,1,40,128a8,8,0,0,1,0-16Z"
              data-original="#000000" class="active-path"
              data-old_color="#000000" fill="#1565C0"/>
    </g>
</svg>
