<?xml version="1.0" encoding="iso-8859-1"?>
<!-- Generator: Adobe Illustrator 19.0.0, SVG Export Plug-In . SVG Version: 6.00 Build 0)  -->
<svg version="1.1" id="Layer_1" xmlns="http://www.w3.org/2000/svg"
     xmlns:xlink="http://www.w3.org/1999/xlink" x="0px" y="0px"
     viewBox="0 0 512 512" style="enable-background:new 0 0 512 512;"
     xml:space="preserve" fill="#1565C0">
<g>
	<g>
		<g>
			<path d="M343.796,255.999c0-48.411-39.385-87.796-87.796-87.796s-87.796,39.385-87.796,87.796s39.385,87.796,87.796,87.796
				S343.796,304.41,343.796,255.999z M183.844,255.999c0-39.787,32.369-72.157,72.157-72.157s72.157,32.369,72.157,72.157
				s-32.369,72.157-72.157,72.157S183.844,295.786,183.844,255.999z"/>
            <path d="M189.589,365.608c-8.432-5.12-16.286-11.229-23.344-18.156l-10.955,11.161c7.914,7.768,16.723,14.619,26.18,20.363
				L189.589,365.608z"/>
            <path d="M363.275,351.733l-11.665-10.417c-6.58,7.369-14.013,13.981-22.091,19.65l8.983,12.802
				C347.562,367.409,355.897,359.995,363.275,351.733z"/>
            <path d="M399.693,261.03l-15.63-0.538c-0.341,9.904-1.823,19.736-4.403,29.224l15.091,4.106
				C397.648,283.171,399.31,272.138,399.693,261.03z"/>
            <path d="M378,216.692c3.017,9.372,4.945,19.125,5.73,28.987l15.591-1.241c-0.881-11.068-3.046-22.015-6.433-32.539L378,216.692z"
            />
            <path d="M239.652,128.891c9.727-1.238,19.811-1.359,29.574-0.359l1.594-15.558c-10.943-1.121-22.238-0.985-33.143,0.402
				L239.652,128.891z"/>
            <path d="M324.382,382.505l-7.449-13.751c-8.687,4.705-17.919,8.394-27.437,10.964l4.078,15.098
				C304.263,391.93,314.628,387.788,324.382,382.505z"/>
            <path d="M225.103,131.607l-3.758-15.182c-10.752,2.662-21.202,6.584-31.061,11.66l7.158,13.906
				C206.223,137.471,215.53,133.977,225.103,131.607z"/>
            <path d="M230.78,381.659c-9.68-1.932-19.139-4.996-28.113-9.111l-6.518,14.217c10.078,4.62,20.701,8.062,31.571,10.231
				L230.78,381.659z"/>
            <path d="M311.753,140.59l6.815-14.077c-9.981-4.832-20.528-8.496-31.349-10.893l-3.381,15.27
				C293.474,133.023,302.866,136.287,311.753,140.59z"/>
            <path d="M123.695,199.627l14.385,6.137c3.867-9.066,8.803-17.701,14.668-25.667l-12.593-9.274
				C133.574,179.76,128.036,189.452,123.695,199.627z"/>
            <path d="M184.7,149.511l-8.714-12.987c-9.189,6.166-17.677,13.404-25.228,21.513l11.446,10.659
				C168.937,161.464,176.506,155.009,184.7,149.511z"/>
            <path d="M347.644,166.439l11.185-10.931c-7.747-7.927-16.41-14.959-25.748-20.9l-8.395,13.195
				C333.012,153.099,340.736,159.37,347.644,166.439z"/>
            <path d="M277.31,398.208l-2.3-15.47c-9.693,1.441-19.759,1.769-29.563,0.972l-1.269,15.587c3.907,0.318,7.884,0.48,11.821,0.48
				C263.135,399.777,270.304,399.25,277.31,398.208z"/>
            <path d="M112.442,247.958l15.617,0.861c0.545-9.886,2.233-19.685,5.016-29.124l-15.001-4.423
				C114.949,225.87,113.054,236.867,112.442,247.958z"/>
            <path d="M360.823,329.72l12.785,9.009c6.392-9.072,11.727-18.877,15.852-29.145l-14.511-5.831
				C371.272,312.899,366.52,321.635,360.823,329.72z"/>
            <path d="M357.37,177.605c6.054,7.816,11.196,16.324,15.283,25.288l14.23-6.489c-4.588-10.06-10.358-19.608-17.149-28.376
				L357.37,177.605z"/>
            <path d="M400.468,141.837c6.297,7.956,11.969,16.487,16.862,25.353l13.694-7.555c-5.307-9.619-11.462-18.873-18.291-27.504
				L400.468,141.837z"/>
            <path d="M367.961,109.815c8.043,6.169,15.634,13.056,22.564,20.467l11.424-10.681c-7.514-8.037-15.747-15.504-24.469-22.195
				L367.961,109.815z"/>
            <path d="M338.676,437.901l-6.48-14.234c-9.229,4.202-18.875,7.655-28.666,10.264l4.026,15.112
				C318.186,446.21,328.657,442.462,338.676,437.901z"/>
            <path d="M424.127,180.818c4.144,9.254,7.538,18.918,10.086,28.723l15.137-3.934c-2.766-10.644-6.451-21.135-10.95-31.18
				L424.127,180.818z"/>
            <path d="M380.834,411.961l-9.781-12.204c-7.922,6.349-16.422,12.077-25.26,17.025l7.638,13.647
				C363.021,425.061,372.241,418.847,380.834,411.961z"/>
            <path d="M291.411,452.631l-2.755-15.396c-9.942,1.779-20.144,2.745-30.324,2.871l0.195,15.638
				C269.562,455.608,280.625,454.56,291.411,452.631z"/>
            <path d="M363.955,87.892c-9.265-5.962-19.083-11.184-29.182-15.522L328.6,86.74c9.306,3.996,18.354,8.809,26.892,14.304
				L363.955,87.892z"/>
            <path d="M434.811,300.095l15.187,3.733c2.62-10.66,4.368-21.641,5.195-32.639l-15.596-1.174
				C438.835,280.154,437.224,290.274,434.811,300.095z"/>
            <path d="M452.84,221.769l-15.411,2.662c1.719,9.952,2.624,20.16,2.691,30.341l15.64-0.102
				C455.686,243.633,454.704,232.564,452.84,221.769z"/>
            <path d="M56.238,255.999c0,0.712,0.003,1.424,0.011,2.134l15.638-0.163c-0.006-0.657-0.01-1.314-0.01-1.972
				c0-9.52,0.733-19.08,2.177-28.413l-15.455-2.393C57.033,235.315,56.238,245.68,56.238,255.999z"/>
            <path d="M61.806,208.972l15.203,3.67c2.379-9.856,5.605-19.582,9.589-28.91l-14.382-6.144
				C67.891,187.715,64.389,198.273,61.806,208.972z"/>
            <path d="M95.025,345.448c-4.934-8.86-9.155-18.187-12.547-27.721l-14.736,5.241c3.682,10.349,8.264,20.472,13.619,30.087
				L95.025,345.448z"/>
            <path d="M77.975,303.174c-2.584-9.777-4.369-19.863-5.305-29.979l-15.574,1.442c1.017,10.976,2.954,21.921,5.758,32.532
				L77.975,303.174z"/>
            <path d="M319.307,66.479c-10.425-3.48-21.227-6.111-32.106-7.819l-2.424,15.45c10.023,1.573,19.975,3.996,29.578,7.203
				L319.307,66.479z"/>
            <path d="M107.74,122.116l11.605,10.486c6.799-7.525,14.272-14.539,22.21-20.846l-9.73-12.245
				C123.217,106.35,115.113,113.957,107.74,122.116z"/>
            <path d="M79.345,162.656l13.822,7.318c4.74-8.952,10.268-17.582,16.432-25.65l-12.428-9.494
				C90.484,143.581,84.487,152.943,79.345,162.656z"/>
            <path d="M121.976,382.249c-6.959-7.385-13.349-15.395-18.993-23.808l-12.988,8.712c6.121,9.125,13.053,17.813,20.599,25.821
				L121.976,382.249z"/>
            <path d="M153.868,102.774c8.438-5.635,17.395-10.6,26.623-14.754l-6.421-14.261c-10.015,4.508-19.734,9.896-28.889,16.011
				L153.868,102.774z"/>
            <path d="M194.622,82.353c9.547-3.375,19.456-5.972,29.446-7.719l-2.693-15.406c-10.845,1.896-21.6,4.715-31.965,8.38
				L194.622,82.353z"/>
            <path d="M243.091,439.676c-10.14-0.702-20.266-2.25-30.098-4.603l-3.639,15.21c10.67,2.553,21.658,4.234,32.657,4.995
				L243.091,439.676z"/>
            <path d="M269.638,72.373l1.141-15.598c-10.922-0.799-22.116-0.704-33.017,0.284l1.411,15.575
				C249.229,71.725,259.562,71.636,269.638,72.373z"/>
            <path d="M157.123,411.348c-8.542-5.449-16.699-11.655-24.244-18.444l-10.462,11.625c8.184,7.364,17.03,14.094,26.296,20.005
				L157.123,411.348z"/>
            <path d="M198.339,430.914c-9.622-3.171-19.054-7.176-28.034-11.907l-7.289,13.837c9.747,5.134,19.984,9.483,30.429,12.924
				L198.339,430.914z"/>
            <path d="M472.998,152.497l14.111-6.744c-4.664-9.759-10.008-19.323-15.885-28.425l-13.139,8.483
				C463.603,134.356,468.62,143.335,472.998,152.497z"/>
            <path d="M488.692,195.527l15.14-3.922c-2.715-10.478-6.137-20.887-10.172-30.936l-14.513,5.827
				C482.933,175.927,486.145,185.694,488.692,195.527z"/>
            <path d="M495.886,240.766l15.609-0.977c-0.677-10.827-2.052-21.692-4.085-32.295l-15.359,2.945
				C493.959,220.395,495.25,230.598,495.886,240.766z"/>
            <path d="M99.777,458.821c8.579,6.618,17.66,12.745,26.994,18.213l7.905-13.494c-8.763-5.134-17.291-10.888-25.346-17.102
				L99.777,458.821z"/>
            <path d="M256.033,496.36c-0.01,0-0.022,0-0.033,0c-6.693,0-13.45-0.278-20.084-0.827l-1.289,15.586
				c7.061,0.584,14.252,0.88,21.372,0.88c0.011,0,0.022,0,0.033,0c3.696,0,7.44-0.08,11.129-0.239l-0.672-15.625
				C263.025,496.284,259.508,496.36,256.033,496.36z"/>
            <path d="M29.495,336.627l-14.734,5.244c3.627,10.191,7.955,20.256,12.862,29.915l13.943-7.084
				C36.96,355.639,32.899,346.192,29.495,336.627z"/>
            <path d="M281.74,494.997l1.655,15.552c10.779-1.147,21.575-2.997,32.089-5.499l-3.621-15.215
				C301.994,492.185,291.86,493.921,281.74,494.997z"/>
            <path d="M326.612,485.823l4.588,14.951c10.344-3.174,20.591-7.052,30.454-11.527l-6.461-14.242
				C345.936,479.203,336.32,482.844,326.612,485.823z"/>
            <path d="M141.094,484.823c9.684,4.872,19.771,9.162,29.98,12.75l5.187-14.754c-9.582-3.368-19.049-7.394-28.138-11.967
				L141.094,484.823z"/>
            <path d="M48.915,378.096l-13.466,7.956c5.498,9.305,11.656,18.359,18.301,26.909l12.349-9.596
				C59.86,395.335,54.077,386.833,48.915,378.096z"/>
            <path d="M75.86,415.134l-11.717,10.36c7.167,8.106,14.924,15.836,23.059,22.976l10.317-11.754
				C89.878,430.01,82.591,422.749,75.86,415.134z"/>
            <path d="M186.606,502.479c10.411,2.926,21.125,5.208,31.844,6.784l2.276-15.474c-10.063-1.48-20.119-3.622-29.889-6.366
				L186.606,502.479z"/>
            <path d="M465.895,373.212l13.648,7.637c5.293-9.459,10.025-19.345,14.062-29.384l-14.51-5.836
				C475.304,355.054,470.864,364.333,465.895,373.212z"/>
            <path d="M484.348,331.249l14.854,4.892c3.384-10.275,6.138-20.879,8.184-31.517l-15.358-2.954
				C490.109,311.655,487.524,321.606,484.348,331.249z"/>
            <path d="M496.36,256.061c-0.002,10.199-0.651,20.465-1.926,30.513l15.516,1.97c1.357-10.697,2.047-21.625,2.05-32.478
				L496.36,256.061z"/>
            <path d="M439.803,410.894l11.954,10.084c6.985-8.279,13.504-17.083,19.376-26.166l-13.134-8.492
				C452.484,394.852,446.362,403.119,439.803,410.894z"/>
            <path d="M407.07,442.961l9.837,12.159c8.408-6.802,16.469-14.215,23.959-22.031l-11.293-10.82
				C422.539,429.61,414.968,436.573,407.07,442.961z"/>
            <path d="M368.893,468.253l7.356,13.801c9.537-5.083,18.852-10.837,27.685-17.101l-9.048-12.757
				C386.593,458.079,377.847,463.48,368.893,468.253z"/>
            <path d="M254.984,15.64l-0.065-15.64c-10.853,0.045-21.776,0.778-32.469,2.177l2.03,15.507
				C234.524,16.37,244.786,15.682,254.984,15.64z"/>
            <path d="M393.862,40.254c-9.123-5.843-18.709-11.152-28.49-15.78l-6.69,14.137c9.181,4.345,18.18,9.328,26.746,14.814
				L393.862,40.254z"/>
            <path d="M124.95,54.472l-8.537-13.103c-9.058,5.902-17.834,12.449-26.086,19.461l10.127,11.918
				C108.203,66.163,116.445,60.015,124.95,54.472z"/>
            <path d="M165.508,33.253l-5.891-14.488c-10.011,4.071-19.867,8.834-29.296,14.157l7.688,13.62
				C146.861,41.544,156.113,37.074,165.508,33.253z"/>
            <path d="M209.395,20.152l-3.016-15.347c-10.628,2.088-21.221,4.885-31.483,8.31l4.951,14.836
				C189.477,24.735,199.419,22.112,209.395,20.152z"/>
            <path d="M350.427,17.979c-10.066-3.996-20.49-7.38-30.983-10.056l-3.864,15.155c9.847,2.511,19.63,5.687,29.076,9.437
				L350.427,17.979z"/>
            <path d="M303.53,4.404c-10.619-1.994-21.494-3.326-32.325-3.961l-0.915,15.613c10.172,0.596,20.385,1.847,30.354,3.718
				L303.53,4.404z"/>
            <path d="M36.615,157.647l-14.267-6.407c-4.438,9.884-8.279,20.152-11.416,30.518l14.969,4.529
				C28.846,176.559,32.45,166.923,36.615,157.647z"/>
            <path d="M21.946,201.053l-15.229-3.561c-2.461,10.521-4.268,21.325-5.373,32.109l15.558,1.594
				C17.941,221.071,19.637,210.929,21.946,201.053z"/>
            <path d="M18.347,292.205L2.883,294.54c1.618,10.714,3.943,21.419,6.909,31.818l15.04-4.289
				C22.048,312.31,19.866,302.262,18.347,292.205z"/>
            <path d="M15.64,255.999c0-3.179,0.063-6.391,0.186-9.547l-15.627-0.611C0.067,249.199,0,252.618,0,255.999
				c0,7.455,0.324,14.982,0.964,22.373l15.581-1.349C15.944,270.079,15.64,263.004,15.64,255.999z"/>
            <path d="M59.302,117.818l-12.79-9.001c-6.237,8.862-11.961,18.204-17.014,27.768l13.828,7.305
				C48.072,134.912,53.447,126.14,59.302,117.818z"/>
            <path d="M89.118,83.013L78.259,71.759c-7.789,7.515-15.173,15.604-21.95,24.04l12.193,9.794
				C74.867,97.669,81.803,90.073,89.118,83.013z"/>
            <path d="M135.763,334.844c2.501,3.806,5.189,7.521,8.034,11.067l12.199-9.787c-2.257-2.813-4.405-5.745-6.424-8.748
				c6.314-5.818,10.279-14.149,10.279-23.392c0-17.258-13.815-31.34-30.965-31.791c-0.358-2.84-0.633-5.696-0.801-8.547
				l-15.613,0.919c0.218,3.706,0.595,7.419,1.099,11.102c-10.286,5.277-17.345,15.985-17.345,28.318
				c0,17.541,14.272,31.813,31.813,31.813C130.702,335.797,133.289,335.463,135.763,334.844z M111.865,303.984
				c0-8.918,7.255-16.173,16.173-16.173c8.919,0,16.173,7.255,16.173,16.173s-7.255,16.173-16.173,16.173
				C119.12,320.158,111.865,312.902,111.865,303.984z"/>
            <path d="M393.296,401.102c1.815-1.718,3.603-3.485,5.363-5.281c5.233,2.535,11.1,3.957,17.292,3.957
				c21.952,0,39.81-17.858,39.81-39.81c0-12.126-5.456-22.996-14.035-30.303c1.211-3.05,2.356-6.128,3.407-9.213l-14.803-5.043
				c-0.752,2.205-1.556,4.407-2.396,6.596c-3.783-1.197-7.807-1.846-11.982-1.846c-21.952,0-39.81,17.858-39.81,39.81
				c0,10.076,3.77,19.282,9.963,26.303c-1.175,1.174-2.359,2.338-3.561,3.474L393.296,401.102z M415.952,335.797
				c13.328,0,24.17,10.842,24.17,24.17c0,13.328-10.842,24.17-24.17,24.17s-24.17-10.842-24.17-24.17
				C391.782,346.639,402.624,335.797,415.952,335.797z"/>
            <path d="M408.133,80.052c0,13.131,10.684,23.815,23.815,23.815c3.091,0,6.045-0.599,8.758-1.676
				c2.994,3.593,5.915,7.298,8.685,11.044l12.575-9.298c-3.002-4.059-6.167-8.074-9.415-11.962c2.038-3.51,3.212-7.58,3.212-11.923
				c0-13.132-10.684-23.815-23.815-23.815c-4.343,0-8.413,1.174-11.923,3.212c-3.891-3.25-7.911-6.421-11.979-9.427l-9.297,12.576
				c3.753,2.776,7.464,5.699,11.059,8.696C408.731,74.007,408.133,76.96,408.133,80.052z M431.947,71.877
				c4.508,0,8.175,3.668,8.175,8.175s-3.668,8.175-8.175,8.175c-4.507,0-8.175-3.668-8.175-8.175
				C423.772,75.544,427.439,71.877,431.947,71.877z"/>
		</g>
	</g>
</g>
    <g>
</g>
    <g>
</g>
    <g>
</g>
    <g>
</g>
    <g>
</g>
    <g>
</g>
    <g>
</g>
    <g>
</g>
    <g>
</g>
    <g>
</g>
    <g>
</g>
    <g>
</g>
    <g>
</g>
    <g>
</g>
    <g>
</g>
</svg>
